<svg xmlns="http://www.w3.org/2000/svg" xmlns:xlink="http://www.w3.org/1999/xlink" width="16" height="16" viewBox="0 0 16 16" fill="none"><defs><rect id="path_0" x="0" y="0" width="16" height="16" /></defs><g opacity="1" transform="translate(0 0)  rotate(0 8 8)"><mask id="bg-mask" fill="white"><use xlink:href="#path_0"></use></mask><g mask="url(#bg-mask)" ><path id="分组 1" fill-rule="evenodd" style="fill:#383838" transform="translate(0 0)  rotate(0 8 8)" opacity="1" d="M0 8C0 12.42 3.58 16 8 16C12.42 16 16 12.42 16 8C16 3.58 12.42 0 8 0C3.58 0 0 3.58 0 8Z M15.5 8C15.5 3.86 12.14 0.5 8 0.5C3.86 0.5 0.5 3.86 0.5 8C0.5 12.14 3.86 15.5 8 15.5C12.14 15.5 15.5 12.14 15.5 8Z M2.9699 4.37783C2.9999 4.51783 3.1299 4.60783 3.2599 4.57783L3.9999 4.44783C4.0699 4.43783 4.1299 4.44783 4.1899 4.48783C4.2499 4.52783 4.2799 4.58783 4.2899 4.65783L5.3099 10.4478C5.3299 10.5578 5.3899 10.6678 5.4899 10.7478C5.5799 10.8278 5.6899 10.8678 5.8099 10.8678L10.9799 10.8678C11.0899 10.8678 11.2099 10.8278 11.2999 10.7478C11.3999 10.6678 11.4499 10.5578 11.4699 10.4478L11.9899 7.32783C12.0099 7.18783 11.9699 7.04783 11.8699 6.92783C11.7999 6.84783 11.7099 6.79783 11.6199 6.76783L11.8399 5.50783C11.9599 5.47783 12.0399 5.37783 12.0299 5.24783C12.0199 5.10783 11.8999 5.00783 11.7599 5.01783L4.9699 5.61783L4.73483 4.29202C4.73579 4.29626 4.73669 4.3005 4.73752 4.30474L4.7399 4.31783C4.73917 4.31347 4.73838 4.3091 4.73752 4.30474L4.7199 4.20783L4.73483 4.29202C4.70965 4.18082 4.64201 4.07209 4.5399 3.99783C4.4199 3.91783 4.2899 3.89783 4.1599 3.91783L3.1799 4.08783C3.0399 4.11783 2.9499 4.23783 2.9699 4.37783Z M11.1125 6.75175L11.3225 5.56175L10.7125 5.61175L10.5125 6.75175L11.1125 6.75175Z M5.168 6.75025L10.008 6.75025L10.198 5.66025L5.058 6.11025L5.168 6.75025Z M6.01799 10.36L10.768 10.36C10.828 10.36 10.878 10.34 10.928 10.3C10.978 10.26 11.008 10.21 11.018 10.15L11.448 7.54C11.458 7.47 11.438 7.4 11.388 7.34C11.338 7.28 11.268 7.25 11.198 7.25L5.55799 7.25C5.48799 7.25 5.41799 7.28 5.36799 7.34C5.31799 7.4 5.29799 7.47 5.30799 7.54L5.77799 10.16C5.78799 10.21 5.80799 10.27 5.85799 10.31C5.90799 10.34 5.96799 10.36 6.01799 10.36Z M6.08275 12.5918C5.67275 12.5918 5.33275 12.2517 5.33275 11.8418C5.33275 11.4318 5.67275 11.0918 6.08275 11.0918C6.49275 11.0918 6.83275 11.4318 6.83275 11.8418C6.83275 12.2517 6.49275 12.5918 6.08275 12.5918Z M10.6003 12.5918C10.1903 12.5918 9.85025 12.2517 9.85025 11.8418C9.85025 11.4318 10.1903 11.0918 10.6003 11.0918C11.0103 11.0918 11.3503 11.4318 11.3503 11.8418C11.3503 12.2517 11.0103 12.5918 10.6003 12.5918Z M6.08275 11.5918C6.22275 11.5918 6.33275 11.7017 6.33275 11.8418C6.33275 11.9818 6.22275 12.0918 6.08275 12.0918C5.94275 12.0918 5.83275 11.9818 5.83275 11.8418C5.83275 11.7017 5.94275 11.5918 6.08275 11.5918Z M10.6003 11.5918C10.7403 11.5918 10.8503 11.7017 10.8503 11.8418C10.8503 11.9818 10.7403 12.0918 10.6003 12.0918C10.4602 12.0918 10.3503 11.9818 10.3503 11.8418C10.3503 11.7017 10.4602 11.5918 10.6003 11.5918Z M4.7399 4.31783L4.7399 4.31783 M4.7399 4.31783C4.7399 4.31783 4.7399 4.31783 4.7399 4.31783 " /></g></g></svg>