<svg xmlns="http://www.w3.org/2000/svg" width="16" height="16" viewBox="0 0 16 16" fill="none"><path id="分组 1" fill-rule="evenodd" style="fill:#D43030" transform="translate(0 0)  rotate(0 8 8)" opacity="1" d="M0 8C0 12.42 3.58 16 8 16C12.42 16 16 12.42 16 8C16 3.58 12.42 0 8 0C3.58 0 0 3.58 0 8Z M15.5 8C15.5 3.86 12.14 0.5 8 0.5C3.86 0.5 0.5 3.86 0.5 8C0.5 12.14 3.86 15.5 8 15.5C12.14 15.5 15.5 12.14 15.5 8Z M11.835 9.1805L11.845 9.1805L7.995 12.2205L4.155 9.1805L4.165 9.1805C3.535 8.6705 3.125 7.9005 3.125 7.0305C3.125 5.5105 4.355 4.2805 5.875 4.2805C6.735 4.2805 7.495 4.6705 8.005 5.2805C8.505 4.6705 9.265 4.2805 10.125 4.2805C11.645 4.2805 12.875 5.5105 12.875 7.0305C12.875 7.9005 12.465 8.6705 11.835 9.1805Z " /></svg>