<svg xmlns="http://www.w3.org/2000/svg" xmlns:xlink="http://www.w3.org/1999/xlink" width="13" height="12.666666656250001" viewBox="0 0 13 12.666666656250001" fill="none"><path id="分组 1" fill-rule="evenodd" style="fill:#000000" transform="translate(0 -4.440892098500626e-16)  rotate(0 6.5 6.333333328125001)" opacity="1" d="M13 9.17L13 1.17C13 0.53 12.47 0 11.83 0L1.17 0C0.53 0 0 0.53 0 1.17L0 9.17C0 9.8 0.53 10.33 1.17 10.33L3.53 10.33L3.53 12.17C3.53 12.37 3.67 12.57 3.83 12.63C3.9 12.67 3.97 12.67 4.03 12.67C4.17 12.67 4.3 12.6 4.4 12.5L6.53 10.33L11.83 10.33C12.47 10.33 13 9.8 13 9.17Z M1.17 1C1.07 1 1 1.07 1 1.17L1 9.17C1 9.27 1.07 9.33 1.17 9.33L4.07 9.33C4.33 9.33 4.57 9.57 4.57 9.83L4.57 10.97L5.97 9.5C6.07 9.4 6.2 9.33 6.33 9.33L11.83 9.33C11.93 9.33 12 9.27 12 9.17L12 1.17C12 1.07 11.93 1 11.83 1L1.17 1Z M3.16667 3.16667C2.89667 3.16667 2.66667 3.39667 2.66667 3.66667C2.66667 3.93667 2.89667 4.16667 3.16667 4.16667L8.99667 4.16667C9.26667 4.16667 9.49667 3.93667 9.49667 3.66667C9.49667 3.39667 9.26667 3.16667 8.99667 3.16667L3.16667 3.16667Z M3.16667 5.5C2.89667 5.5 2.66667 5.73 2.66667 6C2.66667 6.27 2.89667 6.5 3.16667 6.5L6.49667 6.5C6.76667 6.5 6.99667 6.27 6.99667 6C6.99667 5.73 6.76667 5.5 6.49667 5.5L3.16667 5.5Z " /></svg>