<svg xmlns="http://www.w3.org/2000/svg" width="11.975000000000001" height="10.200000000000001"
     viewBox="0 0 11.975000000000001 10.200000000000001" fill="none"><path id="分组 1" fill-rule="evenodd" style="fill:#FFFFFF" transform="translate(-6.217248937900877e-15 0)  rotate(0 5.9875 5.1000000000000005)" opacity="1" d="M6.34 1C6.94 0.4 7.84 0 8.74 0C9.24 0 9.74 0.1 10.14 0.3C12.24 1.4 12.54 4 11.04 5.5L6.64 9.9C6.54 10.1 6.24 10.2 6.04 10.2C5.84 10.2 5.54 10.1 5.34 9.9L0.94 5.5C-0.56 4 -0.26 1.4 1.84 0.3C2.24 0.1 2.74 0 3.24 0C4.14 0 5.04 0.4 5.64 1L6.04 1.4L6.34 1Z M1.73834 4.8C1.23834 4.3 0.93834 3.6 1.03834 2.9C1.13834 2.2 1.63834 1.6 2.23834 1.2C2.53834 1.1 2.93834 1 3.23834 1C3.83834 1 4.53834 1.3 4.93834 1.7L5.33834 2.1L6.03834 2.8L6.73834 2.1L7.13834 1.7C7.63834 1.2 8.23834 1 8.83834 1C9.13834 1 9.43834 1.1 9.73834 1.2C10.4383 1.6 10.8383 2.1 10.9383 2.9C11.0383 3.6 10.8383 4.3 10.3383 4.8L6.03834 9.2L1.73834 4.8Z " /></svg>