<svg xmlns="http://www.w3.org/2000/svg" xmlns:xlink="http://www.w3.org/1999/xlink" width="16" height="16"
     viewBox="0 0 16 16" fill="none">
    <defs>
        <rect id="path_0" x="0" y="0" width="16" height="16"/>
    </defs>
    <g opacity="1" transform="translate(0 0)  rotate(0 8 8)">
        <mask id="bg-mask" fill="white">
            <use xlink:href="#path_0"></use>
        </mask>
        <g mask="url(#bg-mask)">
            <path id="路径 13" style="stroke:#EC5D29; stroke-width:1; stroke-opacity:1; stroke-dasharray:0 0"
                  transform="translate(5.418993741977516 7.086675108464803)  rotate(0 1.4270222752534594 1.5978868549945737)"
                  d="M2.83,1.45C2.86,1.35 2.86,1.25 2.83,1.17C2.83,1.25 2.83,1.34 2.83,1.45Z M2.35,2.99C2.74,3.38 2.82,2.19 2.83,1.45C2.69,1.95 1.99,2.63 2.35,2.99Z M1.13,2.91C2.49,3.93 1.05,1.88 0.71,2.35C0.87,2.62 1.03,2.83 1.13,2.91Z M2.83,1.12C2.83,1.14 2.83,1.15 2.83,1.17 M2.83,1.17C2.82,1.12 2.79,1.08 2.75,1.04C2.45,0.74 1.58,1.82 1.29,1.53C1.08,1.32 1.02,-0.36 0.16,0.07C-0.27,0.28 0.25,1.58 0.71,2.35 M0.71,2.35C0.67,2.41 0.65,2.51 0.65,2.66 "/>
            <path id="路径 14" style="stroke:#EC5D29; stroke-width:1; stroke-opacity:1; stroke-dasharray:0 0"
                  transform="translate(7.118612794308262 5.860395458798195)  rotate(0 2.0667278039995463 2.1883000277642264)"
                  d="M1.22,3.24C1.22,3.51 1.55,3.6 1.97,3.61L2.43,3C2.43,3 1.22,2.93 1.22,3.24Z M1.7,3.97C2.06,4.09 2.52,3.89 2.9,3.55C2.6,3.59 2.27,3.62 1.97,3.61L1.7,3.97Z M2.19,4.38C2.48,4.38 3.51,3.94 3.73,3.73C3.75,3.71 3.77,3.73 3.78,3.77C3.81,3.89 3.82,4.13 3.81,4.05C3.8,3.97 3.79,3.88 3.78,3.77C3.77,3.73 3.75,3.71 3.73,3.73C3.51,3.94 2.48,4.38 2.19,4.38C1.63,4.38 3.15,3.81 3.65,3.57C3.98,3.4 3.51,3.49 2.9,3.55C2.34,3.55 1.63,4.38 2.19,4.38Z M1.82,2.59C2.32,2.51 2.73,2.35 2.43,2.35C2.32,2.35 2.17,2.38 2,2.42C1.94,2.48 1.88,2.54 1.82,2.59Z M1.39,2.64C1.53,2.63 1.68,2.62 1.82,2.59C1.88,2.54 1.94,2.48 2,2.42C1.81,2.47 1.59,2.55 1.39,2.64Z M1.39,2.64C0.77,2.9 0.24,3.24 0.65,3.24C1.03,3.24 1.43,2.94 1.82,2.59C1.68,2.62 1.53,2.63 1.39,2.64Z M3.78,3.77C3.79,3.88 3.8,3.97 3.81,4.05C3.82,4.13 3.81,3.89 3.78,3.77Z M1.96,1.56C2.51,1.33 3.11,1.05 2.76,1.13C2.69,1.15 2.35,1.33 1.96,1.56Z M2.76,1.13C3.11,1.05 2.51,1.33 1.96,1.56C1.37,1.9 0.68,2.34 0.73,2.43C1.12,2.21 2.69,1.15 2.76,1.13Z M2.9,3.55C3.45,3.06 3.85,2.26 3.57,1.7C3.27,1.11 2.67,1.79 2,2.42 M0.73,2.43C0.81,2.6 1.08,2.65 1.39,2.64 M3.78,3.77C3.69,2.61 3.81,0 4.13,0 M1.96,1.56C1.73,1.65 1.52,1.74 1.38,1.78C0.54,2.06 0,3.08 0,3.89 "/>
            <path id="路径 15" style="stroke:#EC5D29; stroke-width:1; stroke-opacity:1; stroke-dasharray:0 0"
                  transform="translate(5.578695486562438 5.762340563950346)  rotate(0 2.5935420103431035 0.4542675749578794)"
                  d="M0,0.91C0.68,0.91 5.19,0.87 5.19,0.02C5.19,-0.12 3.7,0.67 3.65,0.67C2.71,0.67 -0.96,0.58 0.24,0.58 "/>
            <path id="路径 16" style="stroke:#EC5D29; stroke-width:1; stroke-opacity:1; stroke-dasharray:0 0"
                  transform="translate(6.963885579901131 6.934479291264665)  rotate(0 0.8688248875549799 0.5316999877431229)"
                  d="M0,0.51C-0.01,0.52 0.02,0.64 0.06,0.77C0.05,0.67 0.04,0.57 0.04,0.5C0.03,0.5 0.02,0.5 0,0.51Z M0.14,1.06C0.17,1.09 0.11,0.93 0.06,0.77C0.08,0.9 0.12,1.03 0.14,1.06Z M0.09,0.62C0.22,1.57 0.33,0.44 0.04,0.5 M0.04,0.5C0.05,0.46 0.06,0.43 0.07,0.41C0.28,0.28 0.64,0.19 0.88,0.11C1.01,0.07 1.38,-0.04 1.27,0.02C1.1,0.1 0.6,0.27 0.79,0.32C1.49,0.52 2.09,0.07 1.5,0.07 "/>
            <path id="路径 17" style="stroke:#EC5D29; stroke-width:1; stroke-opacity:1; stroke-dasharray:0 0"
                  transform="translate(10.381646036947956 6.567401838784008)  rotate(0 0.04798181557837289 0.7197240959275266)"
                  d="M0.1,0C0.1,0.48 0,0.97 0,1.44 "/>
            <path id="路径 18" style="stroke:#EC5D29; stroke-width:1; stroke-opacity:1; stroke-dasharray:0 0"
                  transform="translate(10.148592938537831 7.513324936288768)  rotate(0 0.12338127358757589 0.411002029748015)"
                  d="M0.25,0C0.16,0.23 0,1.35 0,0.52 "/>
            <path id="路径 19" style="stroke:#EC5D29; stroke-width:1; stroke-opacity:1; stroke-dasharray:0 0"
                  transform="translate(11.327569134452716 7.280271210329033)  rotate(0 0.04798181557837111 0.3907073663606573)"
                  d="M0.1,0C-0.07,0.17 0.17,0.61 0,0.78 "/>
            <path id="路径 20" style="stroke:#EC5D29; stroke-width:1; stroke-opacity:1; stroke-dasharray:0 0"
                  transform="translate(10.134883489772804 7.554452027484615)  rotate(0 0.28103491398849734 0.24676254717515178)"
                  d="M0.56,0C0.33,0.35 0.26,0.49 0,0.49 "/>
            <path id="路径 21" style="stroke:#EC5D29; stroke-width:1; stroke-opacity:1; stroke-dasharray:0 0"
                  transform="translate(5.112954430437782 6.0327496532378575)  rotate(0 0.1667203315035697 0.2330534121849306)"
                  d="M0.02,0C-0.05,0.29 0.1,0.47 0.33,0.47 "/>
            <path id="路径 22" style="stroke:#EC5D29; stroke-width:1; stroke-opacity:1; stroke-dasharray:0 0"
                  transform="translate(5.628449117775105 9.775314952060995)  rotate(0 2.6219827936851705 0.2589441030700437)"
                  d="M0,0C1.14,0 2.81,0.5 3.69,0.47C3.83,0.46 5.36,0.69 5.24,0.23 "/>
            <path id="路径 23" style="stroke:#EC5D29; stroke-width:1; stroke-opacity:1; stroke-dasharray:0 0"
                  transform="translate(5.834084573754396 5.964204292061538)  rotate(0 2.762369206955432 0.3015987733612313)"
                  d="M2.1,0.42C2.32,0.39 2.54,0.35 2.67,0.33C2.9,0.29 3.12,0.26 3.32,0.22C3.42,0.2 3.53,0.17 3.63,0.15C2.88,0.12 1.94,-0.14 1.47,0.33C1.45,0.35 1.44,0.36 1.43,0.38C1.66,0.39 1.89,0.41 2.1,0.42Z M2.1,0.42C1.89,0.41 1.66,0.39 1.43,0.38C1.36,0.51 1.73,0.48 2.1,0.42Z M2.8,0.38C2.97,0.33 3.15,0.27 3.32,0.22C3.12,0.26 2.9,0.29 2.67,0.33C2.54,0.35 2.32,0.39 2.1,0.42C2.38,0.44 2.63,0.43 2.8,0.38Z M3.78,0.15C3.73,0.15 3.68,0.15 3.63,0.15C3.53,0.17 3.42,0.2 3.32,0.22C3.48,0.2 3.63,0.17 3.78,0.15Z M3.78,0.15C3.91,0.13 4.04,0.11 4.17,0.09C4.1,0.09 3.87,0.11 3.77,0.12C3.72,0.13 3.68,0.14 3.63,0.15C3.68,0.15 3.73,0.15 3.78,0.15Z M3.78,0.15C3.92,0.15 4.05,0.14 4.17,0.11C4.2,0.1 4.2,0.1 4.17,0.09C4.04,0.11 3.91,0.13 3.78,0.15Z M0,0.6C0.26,0.34 0.84,0.34 1.43,0.38 M4.17,0.09C4.6,0.04 5.03,0 5.52,0 "/>
            <path id="路径 24" style="stroke:#EC5D29; stroke-width:1; stroke-opacity:1; stroke-dasharray:0 0"
                  transform="translate(5.8615022161852295 9.884986776883537)  rotate(0 0.3153079083514534 0.08095786532923152)"
                  d="M0,0C0.04,0.04 0.63,0.26 0.63,0.11 "/>
            <path id="路径 25" style="stroke:#EC5D29; stroke-width:1; stroke-opacity:1; stroke-dasharray:0 0"
                  transform="translate(10.585837333443038 11.670445400717341)  rotate(0 0.0034752463237328612 0.17723215381424495)"
                  d="M0,0C0,0.12 0.01,0.24 0.01,0.35 "/>
            <path id="路径 26" style="stroke:#EC5D29; stroke-width:1; stroke-opacity:1; stroke-dasharray:0 0"
                  transform="translate(10.577720070850944 11.559240699943857)  rotate(0 0.04228506822272651 0.2745361874513996)"
                  d="M0,0C0,0.15 -0.02,0.45 0.08,0.55 "/>
            <path id="路径 27" style="stroke:#EC5D29; stroke-width:1; stroke-opacity:1; stroke-dasharray:0 0"
                  transform="translate(6.07011242879976 11.600942383194266)  rotate(0 0 0.2745361874514014)"
                  d="M0,0C0,0.18 NaN,0.37 0,0.55 "/>
            <path id="路径 28" style="stroke:#EC5D29; stroke-width:1; stroke-opacity:1; stroke-dasharray:0 0"
                  transform="translate(5.979758569651466 11.795550450468568)  rotate(0 0.020850841625208005 0.011578914984018012)"
                  d="M0,0C0.02,0 0.03,0.03 0.04,0.02 "/>
            <path id="路径 29" style="stroke:#EC5D29; stroke-width:1; stroke-opacity:1; stroke-dasharray:0 0"
                  transform="translate(6.035816559007941 11.732997925592954)  rotate(0 0.07970045977153137 0.027851933203013324)"
                  d="M0.05,0.03C-0.07,0.03 0.06,0.1 0.16,0 "/>
            <path id="路径 30" style="stroke:#EC5D29; stroke-width:1; stroke-opacity:1; stroke-dasharray:0 0"
                  transform="translate(6.146565302653116 11.684345749695083)  rotate(0 0.07645319201195022 0.06950269936448628)"
                  d="M0,0C0,0.09 0.1,0.14 0.15,0.14 "/>
            <path id="路径 31" style="stroke:#EC5D29; stroke-width:1; stroke-opacity:1; stroke-dasharray:0 0"
                  transform="translate(5.9728087133212 11.642644066444674)  rotate(0 0.11467962893862804 0.11467962893862804)"
                  d="M0,0C0.02,0.02 0.2,0.23 0.23,0.23 "/>
            <path id="路径 32" style="stroke:#EC5D29; stroke-width:1; stroke-opacity:1; stroke-dasharray:0 0"
                  transform="translate(6.2577700034266 11.913705007572347)  rotate(0 0.04865185773928005 0.041701683250408905)"
                  d="M0,0C0,0.02 0.08,0.08 0.1,0.08 "/>
            <path id="路径 33" style="stroke:#EC5D29; stroke-width:1; stroke-opacity:1; stroke-dasharray:0 0"
                  transform="translate(6.299471686677009 11.830301641071514)  rotate(0 0.052127104063014684 0.03822643692667782)"
                  d="M0.1,0C0.06,0 0.04,0.08 0,0.08 "/>
            <path id="路径 34" style="stroke:#EC5D29; stroke-width:1; stroke-opacity:1; stroke-dasharray:0 0"
                  transform="translate(6.209117827528729 11.732997925592954)  rotate(0 0.06950301752307908 0.03822643692667782)"
                  d="M0.14,0C0.1,0.01 0.04,0.05 0,0.08 "/>
            <path id="路径 35" style="stroke:#EC5D29; stroke-width:1; stroke-opacity:1; stroke-dasharray:0 0"
                  transform="translate(10.692048776947871 11.962357183470218)  rotate(0 0.055602350386745776 0.03475119060294496)"
                  d="M0,0C0.04,0.03 0.06,0.07 0.11,0.07 "/>
        </g>
    </g>
</svg>