<svg xmlns="http://www.w3.org/2000/svg" xmlns:xlink="http://www.w3.org/1999/xlink" width="16" height="16" viewBox="0 0 16 16" fill="none"><defs><rect id="path_0" x="0" y="0" width="16" height="16" /></defs><g opacity="1" transform="translate(0 0)  rotate(0 8 8)"><mask id="bg-mask" fill="white"><use xlink:href="#path_0"></use></mask><g mask="url(#bg-mask)" ><path id="分组 1" fill-rule="evenodd" style="fill:#383838" transform="translate(0 0)  rotate(0 8 8)" opacity="1" d="M0 8C0 12.42 3.58 16 8 16C12.42 16 16 12.42 16 8C16 3.58 12.42 0 8 0C3.58 0 0 3.58 0 8Z M15.5 8C15.5 3.86 12.14 0.5 8 0.5C3.86 0.5 0.5 3.86 0.5 8C0.5 12.14 3.86 15.5 8 15.5C12.14 15.5 15.5 12.14 15.5 8Z M11.845 9.1805L11.835 9.1805C12.465 8.6705 12.875 7.9005 12.875 7.0305C12.875 5.5105 11.645 4.2805 10.125 4.2805C9.265 4.2805 8.505 4.6705 8.005 5.2805C7.495 4.6705 6.735 4.2805 5.875 4.2805C4.355 4.2805 3.125 5.5105 3.125 7.0305C3.125 7.9005 3.535 8.6705 4.165 9.1805L4.155 9.1805L7.995 12.2205L11.845 9.1805Z M4.54475 8.84025L7.99475 11.5903L11.4548 8.84025C12.0148 8.43025 12.3748 7.77025 12.3748 7.03025C12.3748 5.79025 11.3647 4.78025 10.1248 4.78025C9.14475 4.78025 8.30475 5.41025 8.00475 6.30025C7.69475 5.41025 6.86475 4.78025 5.87475 4.78025C4.63475 4.78025 3.62475 5.79025 3.62475 7.03025C3.62475 7.77025 3.98475 8.43025 4.54475 8.84025Z " /></g></g></svg>