<svg xmlns="http://www.w3.org/2000/svg" xmlns:xlink="http://www.w3.org/1999/xlink" width="16" height="16" viewBox="0 0 16 16" fill="none"><defs><rect id="path_0" x="0" y="0" width="16" height="16" /></defs><g opacity="1" transform="translate(0 0)  rotate(0 8 8)"><mask id="bg-mask" fill="white"><use xlink:href="#path_0"></use></mask><g mask="url(#bg-mask)" ><path id="路径 1" fill-rule="evenodd" style="fill:#EC5D29" transform="translate(2.992187499999999 2)  rotate(0 5.0249999999999995 6.48671875)" opacity="1" d="M10.05,0L8.16,0L5.73,4.49C5.39,5.14 5.14,5.62 5,5.93C4.84,5.55 4.62,5.09 4.34,4.57L1.78,0L0,0L3.57,6.29L0.58,6.29L0.58,7.6L4.25,7.6L4.25,8.85L0.58,8.85L0.58,10.06L4.25,10.06L4.25,12.97L5.83,12.97L5.83,10.06L9.48,10.06L9.48,8.85L5.83,8.85L5.83,7.6L9.48,7.6L9.48,6.29L6.47,6.29L10.05,0Z " /></g></g></svg>