<svg xmlns="http://www.w3.org/2000/svg" width="12.187519867012231" height="6.749984289443422"
     viewBox="0 0 12.187519867012231 6.749984289443422" fill="none">
    <path id="路径 1" fill-rule="evenodd" style="fill:#5D5D5D"
          transform="translate(0 -1.7763568394002505e-15)  rotate(0 6.093759933506115 3.374992144721711)" opacity="1"
          d="M10.78,6.75L12.06,6.75C12.11,6.75 12.16,6.72 12.18,6.68C12.2,6.63 12.19,6.58 12.16,6.54L6.47,0.17C6.45,0.15 6.44,0.14 6.43,0.13C6.22,-0.06 5.9,-0.04 5.72,0.17L0.03,6.54C0,6.58 -0.01,6.63 0.01,6.68C0.03,6.72 0.08,6.75 0.12,6.75L1.41,6.75C1.48,6.75 1.55,6.72 1.6,6.67L6.09,1.63L10.59,6.67C10.64,6.72 10.71,6.75 10.78,6.75Z "/>
</svg>