<svg xmlns="http://www.w3.org/2000/svg" xmlns:xlink="http://www.w3.org/1999/xlink" width="204" height="204" viewBox="0 0 204 204" fill="none"><rect x="0" y="0" width="0" height="0" fill="rgba(249, 249, 249, 1)" /><path  id="圆形 1" style="stroke:#000000; stroke-width:3; stroke-opacity:1; stroke-dasharray:0 0" transform="translate(0 0)  rotate(0 102 102)" d="M102,0C45.67,0 0,45.67 0,102C0,158.33 45.67,204 102,204C158.33,204 204,158.33 204,102C204,45.67 158.33,0 102,0Z " /><path  id="路径 1" style="stroke:#000000; stroke-width:1; stroke-opacity:1; stroke-dasharray:0 0" transform="translate(0 92)  rotate(0 93.50000000000001 38.5)" d="M0,0C0,3.29 4.59,10.74 6.72,12.76C14.97,20.6 12.86,27.38 26.87,34.03C36.7,38.7 53.13,33.49 64.39,35.63C83.22,39.21 76.35,71.6 97.42,76.04C120.4,80.89 133.67,65.92 155.09,61.69C166.67,59.39 175.92,63.81 187,63.81 " /><path id="圆形 2" fill-rule="evenodd" style="fill:#FF5733" transform="translate(33 55)  rotate(0 15 15)" opacity="1" d="M15,0C6.72,0 0,6.72 0,15C0,23.28 6.72,30 15,30C23.28,30 30,23.28 30,15C30,6.72 23.28,0 15,0Z " /><g opacity="1" transform="translate(52 79)  rotate(0 50 8.5)"><text><tspan x="0" y="9" font-size="8" line-height="0" fill="#000000" opacity="1" font-family="SourceHanSansCN-Regular" letter-spacing="0"  >TRAVEL</tspan><tspan x="28.368" y="9" font-size="8" line-height="0" fill="#000000" opacity="1" font-family="SourceHanSansCN-Regular" letter-spacing="0"  > IN</tspan><tspan x="38.28" y="9" font-size="8" line-height="0" fill="#000000" opacity="1" font-family="SourceHanSansCN-Regular" letter-spacing="0" > CHINA</tspan></text></g><g opacity="1" transform="translate(83 41)  rotate(0 19.5 18.5)"><text><tspan x="0" y="30" font-size="36" line-height="0" fill="#000000" opacity="1" font-family="HanaMin" letter-spacing="0" >云</tspan></text></g><g opacity="1" transform="translate(132 41)  rotate(0 19.5 18.5)"><text><tspan x="0" y="30" font-size="36" line-height="0" fill="#000000" opacity="1" font-family="HanaMin" letter-spacing="0" >游</tspan></text></g><g opacity="1" transform="translate(83 94)  rotate(0 19.5 18.5)"><text><tspan x="0" y="30" font-size="36" line-height="0" fill="#000000" opacity="1" font-family="HanaMin" letter-spacing="0" >中</tspan></text></g><g opacity="1" transform="translate(132 96)  rotate(0 19.5 18.5)"><text><tspan x="0" y="30" font-size="36" line-height="0" fill="#000000" opacity="1" font-family="HanaMin" letter-spacing="0" >国</tspan></text></g></svg>